# xmcd
#
# Track frame offsets: 
#        150
#        17595
#        32939
#        52087
#        71058
#        86555
#        106376
#        126114
#        139434
#
# Disc length: 2070 seconds
#
# Revision: 0
# Processed by: cddbd v1.5.1PL0 Copyright (c) Steve Scherf et al.
# Submitted via: ExactAudioCopy v0.95a5
#
DISCID=82081409
DTITLE=Tezzan - No Base
DYEAR=2005
DGENRE=Country
TTITLE0=Any Man of Mine
TTITLE1=Lucky in Love
TTITLE2=Whose Bed Have Your Boots Been Under?
TTITLE3=Home Ain't Where His Heart Is (Anymore)
TTITLE4=Honey I'm Home
TTITLE5=You Win My Love
TTITLE6=Woman in Me
TTITLE7=No One Needs to Know
TTITLE8=Redneck Woman
EXTD=
EXTT0=
EXTT1=
EXTT2=
EXTT3=
EXTT4=
EXTT5=
EXTT6=
EXTT7=
EXTT8=
PLAYORDER=
